<svg width="250" height="250" viewBox="0 0 250 250" fill="none" xmlns="http://www.w3.org/2000/svg">
    <defs>
        <linearGradient id="screen_grad_1" x1="125" y1="60" x2="125" y2="180" gradientUnits="userSpaceOnUse">
            <stop stop-color="#E9F3FF"/>
            <stop offset="1" stop-color="#FFFFFF"/>
        </linearGradient>
        <linearGradient id="logo_grad_1" x1="110" y1="130" x2="140" y2="100" gradientUnits="userSpaceOnUse">
            <stop stop-color="#007BFF"/>
            <stop offset="1" stop-color="#00E5FF"/>
        </linearGradient>
    </defs>

    <path d="M40 190H210C215.5 190 220 194.5 220 200V205C220 207.7 217.7 210 215 210H35C32.3 210 30 207.7 30 205V200C30 194.5 34.5 190 40 190Z" fill="#212529"/>
    <path d="M110 190H140V194H110V190Z" fill="#495057"/>

    <path d="M45 50H205C207.7 50 210 52.3 210 55V185C210 187.7 207.7 190 205 190H45C42.3 190 40 187.7 40 185V55C40 52.3 42.3 50 45 50Z" fill="#343A40"/>

    <rect x="50" y="60" width="150" height="120" fill="url(#screen_grad_1)"/>
    <rect x="50" y="60" width="150" height="15" fill="#007BFF" opacity="0.1"/>
    <circle cx="60" cy="67.5" r="3" fill="#FF5F57"/>
    <circle cx="70" cy="67.5" r="3" fill="#FFBD2E"/>
    <circle cx="80" cy="67.5" r="3" fill="#28C840"/>

    <g transform="translate(100, 100) scale(0.5)">
        <path d="M50 5C31.6 5 16.7 19.9 16.7 38.3C16.7 56.7 31.6 71.7 50 71.7C59.1 71.7 67.5 68 73.5 61.9L61.7 50.1C58.7 53.1 54.5 55 50 55C40.8 55 33.3 47.5 33.3 38.3C33.3 29.1 40.8 21.7 50 21.7C54.5 21.7 58.7 23.5 61.7 26.5L73.5 14.7C67.5 8.7 59.1 5 50 5Z" fill="url(#logo_grad_1)"/>
        <path d="M65.8 14.3L78.3 26.8H50.8L65.8 14.3Z" fill="#00E5FF"/>
        <path d="M83.3 38.3C83.3 19.9 68.4 5 50 5V21.7C59.2 21.7 66.7 29.1 66.7 38.3C66.7 47.5 59.2 55 50 55V71.7C68.4 71.7 83.3 56.8 83.3 38.3Z" fill="url(#logo_grad_1)" opacity="0.8"/>
        <path d="M29.2 59.2L12.5 42.5H45.8L29.2 59.2Z" fill="#007BFF"/>
    </g>
    
    <rect x="95" y="64" width="60" height="7" rx="3.5" fill="#007BFF" opacity="0.2"/>
	</svg>
