<svg width="250" height="250" viewBox="0 0 250 250" fill="none" xmlns="http://www.w3.org/2000/svg">
    <defs>
        <linearGradient id="scan_beam" x1="180" y1="140" x2="125" y2="100" gradientUnits="userSpaceOnUse">
            <stop stop-color="#00E5FF" stop-opacity="0.6"/>
            <stop offset="1" stop-color="#00E5FF" stop-opacity="0"/>
        </linearGradient>
        <linearGradient id="phone_screen" x1="160" y1="130" x2="200" y2="190" gradientUnits="userSpaceOnUse">
             <stop stop-color="#E9F3FF"/>
            <stop offset="1" stop-color="#FFFFFF"/>
        </linearGradient>
    </defs>

    <path d="M40 190H160V200C160 205.5 155.5 210 150 210H35C29.5 210 25 205.5 25 200V190H40Z" fill="#212529" opacity="0.5"/>
    <path d="M30 50H160V190H30V50Z" fill="#343A40" opacity="0.5"/>
    <rect x="35" y="55" width="120" height="130" fill="#FFFFFF" opacity="0.8"/>
    
    <g fill="#212529" opacity="0.7" transform="translate(55, 75)">
        <rect width="30" height="30"/> <rect x="50" width="30" height="30"/>
        <rect y="50" width="30" height="30"/> <rect x="40" y="40" width="15" height="15"/>
        <rect x="60" y="55" width="15" height="25"/> <rect x="10" y="40" width="10" height="5"/>
        <rect x="10" y="10" width="10" height="10" fill="white"/>
        <rect x="60" y="10" width="10" height="10" fill="white"/>
        <rect x="10" y="60" width="10" height="10" fill="white"/>
    </g>

    <rect x="160" y="100" width="60" height="110" rx="8" fill="#212529"/>
    <rect x="163" y="105" width="54" height="100" rx="4" fill="url(#phone_screen)"/>
    <circle cx="190" cy="115" r="3" fill="#343A40"/>

    <path d="M190 120 L55 75 L135 75 L190 120Z" fill="url(#scan_beam)"/>
    <rect x="55" y="85" width="80" height="2" fill="#00E5FF"/>

</svg>